<svg width="48" height="46" viewBox="0 0 48 46" fill="none" xmlns="http://www.w3.org/2000/svg">
<path d="M20.4328 6.28546C21.0118 4.50364 21.4412 3.18262 21.8334 2.24621C22.2318 1.29495 22.5658 0.810608 22.9153 0.61848C23.5903 0.2474 24.4082 0.2474 25.0832 0.61848C25.4327 0.810608 25.7667 1.29495 26.1651 2.24621C26.5573 3.18262 26.9868 4.50364 27.5657 6.28546L29.7111 12.8883L29.7307 12.9486C30.0346 13.8842 30.2098 14.4234 30.5444 14.8279C30.8396 15.1848 31.2203 15.4613 31.651 15.6319C32.1391 15.8251 32.706 15.8251 33.6897 15.825L33.7531 15.825H40.6958C42.5693 15.825 43.9583 15.8252 44.9701 15.9088C45.9979 15.9938 46.5618 16.1618 46.8525 16.4348C47.414 16.9621 47.6668 17.74 47.5224 18.4966C47.4477 18.8883 47.0903 19.3557 46.3087 20.0286C45.5393 20.6909 44.4157 21.5076 42.9 22.6088L37.2832 26.6896L37.2319 26.7269C36.436 27.305 35.9774 27.6382 35.6961 28.0814C35.4479 28.4725 35.3025 28.92 35.2734 29.3823C35.2404 29.9062 35.4157 30.4454 35.7197 31.3809L35.7393 31.4412L37.8847 38.0441C38.4637 39.8259 38.8927 41.147 39.1258 42.1351C39.3626 43.1389 39.3771 43.7271 39.2073 44.0879C38.8793 44.7849 38.2176 45.2657 37.4534 45.3622C37.0578 45.4122 36.5028 45.2167 35.6214 44.6813C34.7537 44.1542 33.6298 43.3379 32.1141 42.2367L26.4974 38.1559L26.446 38.1186C25.6502 37.5403 25.1916 37.2071 24.6832 37.0765C24.2345 36.9613 23.764 36.9613 23.3154 37.0765C22.8069 37.2071 22.3483 37.5403 21.5525 38.1186L21.5012 38.1559L15.8845 42.2367C14.3688 43.3379 13.2449 44.1542 12.3772 44.6813C11.4957 45.2167 10.9408 45.4122 10.5451 45.3622C9.7809 45.2657 9.1192 44.7849 8.79124 44.0879C8.62143 43.7271 8.6359 43.1389 8.8727 42.1351C9.10581 41.147 9.53486 39.8259 10.1138 38.0441L12.2592 31.4412L12.2788 31.3809C12.5829 30.4454 12.7581 29.9062 12.7251 29.3823C12.6961 28.92 12.5507 28.4725 12.3025 28.0814C12.0212 27.6382 11.5625 27.305 10.7666 26.7269L10.7153 26.6896L5.09858 22.6088C3.58288 21.5076 2.45922 20.6909 1.68984 20.0286C0.908258 19.3557 0.550837 18.8883 0.476107 18.4966C0.331773 17.74 0.58452 16.9621 1.14602 16.4348C1.43674 16.1618 2.0006 15.9938 3.02842 15.9088C4.04019 15.8252 5.42926 15.825 7.30278 15.825H14.2454L14.3088 15.825C15.2926 15.8251 15.8595 15.8251 16.3476 15.6319C16.7783 15.4613 17.1589 15.1848 17.4541 14.8279C17.7888 14.4234 17.9639 13.8842 18.2678 12.9487L18.2874 12.8883L20.4328 6.28546Z" fill="url(#paint0_linear_154_427)" stroke="#333333" stroke-width="0.5"/>
<defs>
<linearGradient id="paint0_linear_154_427" x1="23.9993" y1="-5.5" x2="23.9993" y2="55.5" gradientUnits="userSpaceOnUse">
<stop stop-color="#FFD24C"/>
<stop offset="1" stop-color="#FFC20C"/>
</linearGradient>
</defs>
</svg>
