<svg width="18" height="17" viewBox="0 0 18 17" fill="none" xmlns="http://www.w3.org/2000/svg">
<path d="M6.5106 12.477C7.91451 13.5058 9.65512 13.9666 11.3842 13.7672C13.1133 13.5678 14.7033 12.7229 15.8361 11.4015C16.969 10.0801 17.5612 8.37967 17.4941 6.64043C17.4271 4.90118 16.7059 3.25138 15.4747 2.02108C14.2435 0.790775 12.5932 0.0707083 10.8539 0.00493671C9.11462 -0.0608349 7.41463 0.532539 6.09405 1.66635C4.77346 2.80015 3.92968 4.39077 3.7315 6.11999C3.53333 7.8492 3.99537 9.58948 5.0252 10.9927L5.0252 10.9916C4.9827 11.0235 4.94233 11.0575 4.90301 11.0957L0.812339 15.1864C0.612968 15.3856 0.500907 15.6559 0.500808 15.9377C0.500707 16.2196 0.612577 16.4899 0.811807 16.6893C1.01104 16.8887 1.28131 17.0008 1.56316 17.0009C1.84501 17.001 2.11536 16.8891 2.31473 16.6898L6.40541 12.5992C6.44386 12.5612 6.47938 12.5203 6.51166 12.477L6.5106 12.477ZM10.5949 12.7511C9.82748 12.7511 9.06757 12.6 8.35856 12.3063C7.64956 12.0126 7.00534 11.5821 6.46269 11.0395C5.92004 10.4968 5.48959 9.85263 5.19591 9.14362C4.90223 8.43462 4.75108 7.67471 4.75108 6.90729C4.75108 6.13987 4.90223 5.37996 5.19591 4.67096C5.48959 3.96195 5.92004 3.31773 6.46269 2.77508C7.00534 2.23243 7.64956 1.80198 8.35856 1.5083C9.06757 1.21462 9.82748 1.06347 10.5949 1.06347C12.1448 1.06347 13.6312 1.67915 14.7271 2.77508C15.823 3.87101 16.4387 5.35741 16.4387 6.90729C16.4387 8.45717 15.823 9.94357 14.7271 11.0395C13.6312 12.1354 12.1448 12.7511 10.5949 12.7511Z" fill="black"/>
</svg>
